<?xml version="1.0" encoding="UTF-8" standalone="no" ?>
<!DOCTYPE svg PUBLIC "-//W3C//DTD SVG 1.1//EN" "http://www.w3.org/Graphics/SVG/1.1/DTD/svg11.dtd">
<svg xmlns="http://www.w3.org/2000/svg" xmlns:xlink="http://www.w3.org/1999/xlink" version="1.1" width="500" height="500" viewBox="0 0 500 500" xml:space="preserve">
<desc>Created with Fabric.js 5.3.0</desc>
<defs>
</defs>
<g transform="matrix(1 0 0 1 250 250)" id="t5fCVanFuPatJBM4ktAqI"  >
<g style=""   >
		<g transform="matrix(10 0 0 10 0 -0.6331146133)" id="9jRytWb_1sd1eGn2dYIo5"  >
<path style="stroke: none; stroke-width: 1; stroke-dasharray: none; stroke-linecap: butt; stroke-dashoffset: 0; stroke-linejoin: miter; stroke-miterlimit: 4; fill: rgb(53,160,249); fill-rule: nonzero; opacity: 1;"  transform=" translate(-25, -25.000548415)" d="M 19.852 7.761 L 4.852 10.011 C 4.362 10.085 4 10.505 4 11 L 4 23 C 4 23.553 4.448 24 5 24 L 20 24 C 20.552 24 21 23.553 21 23 L 21 8.75 C 21 8.459 20.873 8.183 20.652 7.992 C 20.432 7.803 20.139 7.721 19.852 7.761 z M 45.652 4.242 C 45.432 4.053 45.14 3.971 44.851 4.011 L 23.851 7.161 C 23.362 7.235 23 7.655 23 8.15 L 23 23 C 23 23.553 23.448 24 24 24 L 45 24 C 45.552 24 46 23.553 46 23 L 46 5 C 46 4.709 45.873 4.433 45.652 4.242 z M 20 26 L 5 26 C 4.448 26 4 26.447 4 27 L 4 39 C 4 39.495 4.362 39.915 4.852 39.989 L 19.852 42.239 C 19.902 42.245999999999995 19.951 42.25 20 42.25 C 20.238 42.25 20.47 42.165 20.652 42.008 C 20.873 41.817 21 41.541 21 41.25 L 21 27 C 21 26.447 20.552 26 20 26 z M 45 26 L 24 26 C 23.448 26 23 26.447 23 27 L 23 41.85 C 23 42.345 23.362 42.765 23.852 42.839 L 44.852000000000004 45.989 C 44.901 45.996 44.951 46 45 46 C 45.238 46 45.47 45.915 45.652 45.758 C 45.873 45.567 46 45.291 46 45 L 46 27 C 46 26.447 45.552 26 45 26 z" stroke-linecap="round" />
</g>
		<g transform="matrix(0.0654609383 0.0727017373 0.0727017373 -0.0654609383 -23.5140755835 -11.0283955479)" id="JMBqEsH_a5F_p-DU0WcMJ"  >
<path style="stroke: none; stroke-width: 1; stroke-dasharray: none; stroke-linecap: butt; stroke-dashoffset: 0; stroke-linejoin: miter; stroke-miterlimit: 4; fill: rgb(0,0,0); fill-rule: nonzero; opacity: 1;"  transform=" translate(-3349.6688042981, -4696.9811546544)" d="M 2637 6000 C 2505 5977 2367 5870 2308 5743 C 2250 5621 2258 5450 2327 5333 C 2361 5274 2464 5181 2527 5153 L 2580 5129 L 2580 4641 C 2580 4091 2582 4071 2660 3903 C 2750 3709 2878 3574 3062 3479 C 3193 3412 3286 3388 3425 3387 C 3562 3386 3640 3405 3775 3470 C 3942 3551 4074 3681 4154 3845 C 4214 3969 4222 4008 4229 4208 L 4235 4391 L 4333 4300 C 4386 4249 4430 4211 4430 4213 C 4430 4219 4295 4578 4200 4825 C 4166 4913 4123 5028 4103 5080 C 4043 5239 4048 5231 4040 5190 C 4032 5153 3906 4724 3816 4429 C 3787 4332 3759 4242 3755 4229 C 3750 4213 3781 4237 3850 4305 L 3952 4405 L 3947 4250 C 3943 4114 3939 4087 3917 4028 C 3850 3853 3708 3726 3542 3691 C 3279 3636 3015 3783 2920 4038 C 2870 4170 2869 4183 2865 4625 C 2863 4856 2863 5064 2867 5088 C 2872 5127 2876 5132 2932 5162 C 3148 5277 3239 5536 3136 5745 C 3042 5937 2849 6035 2637 6000 z M 2831 5732 C 2885 5696 2905 5675 2925 5627 C 2955 5554 2937 5468 2876 5395 L 2851 5366 L 2851 5426 C 2851 5460 2845 5503 2836 5523 C 2809 5589 2725 5619 2661 5586 C 2618 5564 2598 5524 2592 5453 C 2586 5378 2577 5377 2535 5445 C 2468 5553 2519 5700 2640 5749 C 2654 5754 2692 5759 2726 5759 C 2776 5760 2794 5755 2831 5732 z" stroke-linecap="round" />
</g>
		<g transform="matrix(0.0198522202 0.0294321268 0.0294321268 -0.0198522202 167.7563941346 56.1625162377)" id="nXMjnyz3hiW07akTPIohD"  >
<path style="stroke: none; stroke-width: 1; stroke-dasharray: none; stroke-linecap: butt; stroke-dashoffset: 0; stroke-linejoin: miter; stroke-miterlimit: 4; fill: rgb(255,255,255); fill-rule: nonzero; opacity: 1;"  transform=" translate(-6200.0139613396, -7656.0276635969)" d="M 6185 7744 C 6059 7636 5903 7507 5840 7457 C 5743 7381 5730 7368 5758 7373 C 5866 7394 5991 7402 6140 7397 L 6305 7392 L 6345 7453 C 6387 7517 6546 7684 6615 7738 L 6655 7768 L 6615 7758 C 6515 7731 6414 7783 6403 7867 C 6399 7894 6402 7915 6410 7925 C 6417 7933 6421 7940 6419 7940 C 6417 7940 6312 7852 6185 7744 z" stroke-linecap="round" />
</g>
		<g transform="matrix(0.0198522202 0.0294321268 0.0294321268 -0.0198522202 174.6647280809 78.9082116788)" id="qeJsx5LscejtRwvXqnrII"  >
<path style="stroke: none; stroke-width: 1; stroke-dasharray: none; stroke-linecap: butt; stroke-dashoffset: 0; stroke-linejoin: miter; stroke-miterlimit: 4; fill: rgb(255,255,255); fill-rule: nonzero; opacity: 1;"  transform=" translate(-6839.9894366077, -7459.0796095791)" d="M 7015 7670 C 6801 7627 6614 7539 6499 7428 C 6437 7368 6428 7356 6445 7352 C 6510 7338 6702 7275 6750 7251 C 6800 7226 6809 7224 6826 7237 C 6884 7280 7030 7350 7140 7387 C 7209 7410 7254 7429 7240 7430 C 7195 7431 7114 7475 7092 7513 C 7061 7562 7063 7620 7096 7659 C 7110 7676 7118 7690 7113 7689 C 7109 7689 7065 7680 7015 7670 z" stroke-linecap="round" />
</g>
		<g transform="matrix(0.0198522202 0.0294321268 0.0294321268 -0.0198522202 75.6319765296 107.4438578922)" id="r23yZgMq8pSxarWIEEZbD"  >
<path style="stroke: none; stroke-width: 1; stroke-dasharray: none; stroke-linecap: butt; stroke-dashoffset: 0; stroke-linejoin: miter; stroke-miterlimit: 4; fill: rgb(255,255,255); fill-rule: nonzero; opacity: 1;"  transform=" translate(0, 0)" d="M -107.69827 2559.04203 C -715.69827 2488.04203 -1231.69827 2199.04203 -1721.69827 1657.04203 C -1867.69827 1495.04203 -1887.69827 1468.04203 -1887.69827 1435.04203 C -1887.69827 1396.04203 -1861.69827 1378.04203 -1787.69827 1365.04203 C -1640.69827 1340.04203 -1514.69827 1280.04203 -1296.69827 1134.04203 C -1070.69827 982.0420300000001 -974.6982700000001 945.0420300000001 -797.6982700000001 945.0420300000001 C -631.6982700000001 945.0420300000001 -492.6982700000001 997.0420300000001 -374.6982700000001 1105.04203 C -122.6982700000001 1336.04203 -100.6982700000001 1692.04203 -318.6982700000001 1990.04203 C -364.6982700000001 2053.04203 -484.6982700000001 2167.04203 -545.6982700000001 2205.04203 C -571.6982700000001 2221.04203 -589.6982700000001 2235.04203 -586.6982700000001 2235.04203 C -563.6982700000001 2236.04203 -358.6982700000001 2150.04203 -310.6982700000001 2119.04203 C -167.6982700000001 2028.04203 -58.69827000000009 1873.04203 -21.698270000000093 1709.04203 C 0.3017299999999068 1610.04203 -6.698270000000093 1421.04203 -35.69827000000009 1328.04203 C -104.6982700000001 1111.04203 -239.6982700000001 951.0420300000001 -442.6982700000001 850.0420300000001 C -566.6982700000001 788.0420300000001 -654.6982700000001 771.0420300000001 -822.6982700000001 778.0420300000001 C -1032.69827 786.0420300000001 -1132.69827 825.0420300000001 -1387.69827 994.0420300000001 C -1605.69827 1140.04203 -1700.69827 1183.04203 -1839.69827 1200.04203 C -1891.69827 1207.04203 -1898.69827 1205.04203 -1921.69827 1182.04203 C -2037.69827 1066.04203 -1745.69827 814.0420300000001 -1342.69827 681.0420300000001 C -1132.69827 612.0420300000001 -1057.69827 600.0420300000001 -827.6982700000001 601.0420300000001 C -648.6982700000001 601.0420300000001 -612.6982700000001 604.0420300000001 -542.6982700000001 623.0420300000001 C -444.6982700000001 650.0420300000001 -294.6982700000001 721.0420300000001 -211.6982700000001 780.0420300000001 C -73.6982700000001 879.0420300000001 65.3017299999999 1066.04203 126.3017299999999 1233.04203 C 199.3017299999999 1437.04203 202.3017299999999 1673.04203 132.3017299999999 1857.04203 C 92.3017299999999 1965.04203 -26.698270000000093 2113.04203 -137.6982700000001 2195.04203 C -189.6982700000001 2233.04203 -189.6982700000001 2233.04203 -41.69827000000009 2167.04203 C 79.3017299999999 2113.04203 142.3017299999999 2074.04203 215.3017299999999 2006.04203 C 267.3017299999999 1958.04203 322.3017299999999 1867.04203 343.3017299999999 1797.04203 C 352.3017299999999 1766.04203 360.3017299999999 1756.04203 371.3017299999999 1759.04203 C 452.3017299999999 1782.04203 644.3017299999999 1772.04203 762.3017299999999 1738.04203 C 971.3017299999999 1678.04203 1164.30173 1521.04203 1257.30173 1337.04203 C 1324.30173 1202.04203 1341.30173 1006.0420300000001 1301.30173 844.0420300000001 C 1271.30173 725.0420300000001 1267.30173 723.0420300000001 1270.30173 835.0420300000001 C 1275.30173 976.0420300000001 1258.30173 1061.04203 1206.30173 1164.04203 C 1105.30173 1362.04203 947.3017299999999 1493.04203 743.3017299999999 1547.04203 C 661.3017299999999 1568.04203 511.3017299999999 1576.04203 430.3017299999999 1562.04203 L 383.3017299999999 1554.04203 L 380.3017299999999 1449.04203 L 377.3017299999999 1345.04203 L 412.3017299999999 1352.04203 C 474.3017299999999 1365.04203 594.3017299999999 1357.04203 654.3017299999999 1336.04203 C 719.3017299999999 1314.04203 803.3017299999999 1261.04203 846.3017299999999 1216.04203 L 874.3017299999999 1186.04203 L 815.3017299999999 1210.04203 C 726.3017299999999 1246.04203 586.3017299999999 1260.04203 460.3017299999999 1245.04203 C 403.3017299999999 1239.04203 354.3017299999999 1228.04203 350.3017299999999 1222.04203 C 347.3017299999999 1216.04203 341.3017299999999 1196.04203 337.3017299999999 1177.04203 C 334.3017299999999 1158.04203 320.3017299999999 1119.04203 308.3017299999999 1091.04203 L 285.3017299999999 1040.04203 L 376.3017299999999 1039.04203 C 446.3017299999999 1039.04203 480.3017299999999 1033.04203 521.3017299999999 1016.0420300000001 C 584.3017299999999 990.0420300000001 717.3017299999999 907.0420300000001 708.3017299999999 898.0420300000001 C 705.3017299999999 895.0420300000001 697.3017299999999 897.0420300000001 690.3017299999999 902.0420300000001 C 647.3017299999999 937.0420300000001 422.3017299999999 959.0420300000001 299.3017299999999 942.0420300000001 C 242.3017299999999 934.0420300000001 240.3017299999999 933.0420300000001 182.3017299999999 858.0420300000001 C 149.3017299999999 817.0420300000001 124.3017299999999 779.0420300000001 127.3017299999999 775.0420300000001 C 130.3017299999999 771.0420300000001 171.3017299999999 764.0420300000001 219.3017299999999 760.0420300000001 C 466.3017299999999 740.0420300000001 849.3017299999999 669.0420300000001 931.3017299999999 628.0420300000001 C 1049.30173 569.0420300000001 1211.30173 372.04203000000007 1288.30173 196.04203000000007 C 1345.30173 65.04203000000007 1363.30173 -21.957969999999932 1369.30173 -184.95796999999993 C 1377.30173 -393.95796999999993 1343.30173 -553.9579699999999 1251.30173 -735.9579699999999 C 1127.30173 -983.9579699999999 939.3017299999999 -1171.95797 696.3017299999999 -1290.95797 C 624.3017299999999 -1325.95797 562.3017299999999 -1354.95797 558.3017299999999 -1354.95797 C 554.3017299999999 -1354.95797 707.3017299999999 -1305.1685 762.3017299999999 -1264.1685 C 902.3017299999999 -1158.1685 1019.3017299999999 -1131.64218 1122.30173 -961.64218 C 1161.30173 -897.64218 1251.30173 -745.95797 1251.30173 -735.95797 C 1251.30173 -732.95797 1110.14384 -788.95797 1082.14384 -816.95797 C 1012.14384 -885.95797 836.3017299999999 -876.4842900000001 743.3017299999999 -891.4842900000001 C 613.3017299999999 -913.4842900000001 567.3017299999999 -855.9579700000002 237.3017299999999 -741.9579700000002 C -25.698270000000093 -649.9579700000002 -238.6982700000001 -632.9579700000002 -447.6982700000001 -684.9579700000002 C -549.6982700000001 -710.9579700000002 -677.6982700000001 -770.9579700000002 -731.6982700000001 -816.9579700000002 L -769.6982700000001 -850.9579700000002 L -720.6982700000001 -852.9579700000002 C -630.6982700000001 -856.9579700000002 -507.6982700000001 -909.9579700000002 -392.6982700000001 -994.9579700000002 C -278.6982700000001 -1078.9579700000002 -150.6982700000001 -1244.9579700000002 -112.6982700000001 -1356.9579700000002 C -96.6982700000001 -1401.9579700000002 -95.6982700000001 -1402.9579700000002 -44.69827000000009 -1408.9579700000002 C 136.3017299999999 -1428.9579700000002 -313.2772200000001 -1295.9579700000002 122.3017299999999 -1514.6948100000002 C 557.88068 -1733.4316500000002 337.3017299999999 -1557.74744 337.3017299999999 -1557.74744 L 411.3017299999999 -1439.9579700000002 C 362.3017299999999 -1507.9579700000002 252.3017299999999 -1608.9579700000002 163.3017299999999 -1666.9579700000002 C 121.3017299999999 -1693.9579700000002 124.3017299999999 -1728.2211300000001 122.3017299999999 -1730.2211300000001 C 120.3017299999999 -1732.2211300000001 92.3017299999999 -1758.9579700000002 107.3017299999999 -1801.9579700000002 C 128.3017299999999 -1861.9579700000002 136.3017299999999 -1905.9579700000002 140.3017299999999 -1990.9579700000002 C 148.3017299999999 -2165.9579700000004 117.3017299999999 -2301.9579700000004 31.301729999999907 -2472.9579700000004 C 4.301729999999907 -2527.9579700000004 -9.698270000000093 -2563.9579700000004 -1.6982700000000932 -2560.9579700000004 C 6.301729999999907 -2557.9579700000004 41.30172999999991 -2547.9579700000004 75.3017299999999 -2539.9579700000004 C 160.3017299999999 -2517.9579700000004 363.3017299999999 -2416.9579700000004 443.3017299999999 -2355.9579700000004 C 530.3017299999999 -2289.9579700000004 653.3017299999999 -2158.9579700000004 721.3017299999999 -2060.9579700000004 C 784.3017299999999 -1968.9579700000004 863.3017299999999 -1817.9579700000004 883.3017299999999 -1749.9579700000004 C 896.3017299999999 -1706.9579700000004 907.3017299999999 -1694.9579700000004 1002.3017299999999 -1621.9579700000004 C 1132.30173 -1521.9579700000004 1314.30173 -1340.9579700000004 1412.30173 -1214.9579700000004 C 1703.30173 -837.9579700000004 1861.30173 -454.9579700000004 1934.30173 50.04202999999961 C 1954.30173 185.0420299999996 1950.30173 562.0420299999996 1929.30173 705.0420299999996 C 1866.30173 1115.0420299999996 1745.30173 1443.0420299999996 1544.30173 1746.0420299999996 C 1302.30173 2111.0420299999996 1016.3017299999999 2342.0420299999996 645.3017299999999 2474.0420299999996 C 467.3017299999999 2538.0420299999996 349.3017299999999 2557.0420299999996 122.3017299999999 2560.0420299999996 C 15.301729999999907 2562.0420299999996 -88.6982700000001 2561.0420299999996 -107.6982700000001 2559.0420299999996 z M -912.69827 1822.04203 C -735.69827 1722.04203 -829.69827 1459.04203 -1031.6982699999999 1489.04203 C -1118.6982699999999 1502.04203 -1177.6982699999999 1577.04203 -1177.6982699999999 1672.04203 C -1176.6982699999999 1807.04203 -1031.6982699999999 1889.04203 -912.6982699999999 1822.04203 z" stroke-linecap="round" />
</g>
		<g transform="matrix(0.0198522202 0.0294321268 0.0294321268 -0.0198522202 172.0189866667 101.5807278355)" id="0vl9gWlXJLMq31DdExPuz"  >
<path style="stroke: none; stroke-width: 1; stroke-dasharray: none; stroke-linecap: butt; stroke-dashoffset: 0; stroke-linejoin: miter; stroke-miterlimit: 4; fill: rgb(255,255,255); fill-rule: nonzero; opacity: 1;"  transform=" translate(-7327.7676680326, -7040.1760638567)" d="M 7265 7244 C 7158 7233 6950 7171 6950 7151 C 6950 7148 6991 7119 7040 7086 C 7089 7054 7178 6984 7237 6931 L 7345 6834 L 7417 6868 C 7496 6905 7616 6940 7667 6940 C 7703 6940 7719 6956 7692 6964 C 7682 6967 7657 6988 7636 7009 C 7584 7063 7575 7124 7614 7174 C 7630 7195 7652 7211 7672 7216 L 7705 7223 L 7675 7232 C 7642 7241 7329 7251 7265 7244 z" stroke-linecap="round" />
</g>
		<g transform="matrix(0.0198522202 0.0294321268 0.0294321268 -0.0198522202 166.167435841 122.8807581955)" id="YmW7X8JpyTZpuPIyvp8fo"  >
<path style="stroke: none; stroke-width: 1; stroke-dasharray: none; stroke-linecap: butt; stroke-dashoffset: 0; stroke-linejoin: miter; stroke-miterlimit: 4; fill: rgb(255,255,255); fill-rule: nonzero; opacity: 1;"  transform=" translate(-7733, -6568.0283182093)" d="M 7570 6759 C 7480 6749 7440 6739 7440 6725 C 7441 6720 7463 6687 7490 6654 C 7532 6602 7636 6451 7675 6385 C 7685 6369 7690 6369 7763 6385 C 7815 6396 7870 6401 7933 6398 L 8026 6395 L 7980 6441 C 7954 6467 7926 6503 7917 6523 C 7882 6596 7906 6673 7970 6695 L 8005 6707 L 7965 6719 C 7834 6756 7686 6771 7570 6759 z" stroke-linecap="round" />
</g>
		<g transform="matrix(0.0198522202 0.0294321268 0.0294321268 -0.0198522202 149.6072882258 143.3117680275)" id="YcRhQbwWzjfoVFJJSxHjP"  >
<path style="stroke: none; stroke-width: 1; stroke-dasharray: none; stroke-linecap: butt; stroke-dashoffset: 0; stroke-linejoin: miter; stroke-miterlimit: 4; fill: rgb(255,255,255); fill-rule: nonzero; opacity: 1;"  transform=" translate(-7949.2653659217, -5859.5)" d="M 7791 6156 C 7870 5990 7923 5823 7969 5598 L 7997 5459 L 8010 5562 C 8017 5619 8024 5733 8025 5816 C 8027 5934 8031 5974 8044 6002 C 8063 6042 8117 6074 8146 6063 C 8167 6055 8161 6068 8114 6126 C 8047 6210 7930 6260 7804 6260 L 7741 6260 L 7791 6156 z" stroke-linecap="round" />
</g>
		<g transform="matrix(0.0198522202 0.0294321268 0.0294321268 -0.0198522202 83.4932435909 106.1866314133)" id="e3D4pCoYioJJDqQTjf1-3"  >
<path style="stroke: none; stroke-width: 1; stroke-dasharray: none; stroke-linecap: butt; stroke-dashoffset: 0; stroke-linejoin: miter; stroke-miterlimit: 4; fill: rgb(255,255,255); fill-rule: nonzero; opacity: 1;"  transform=" translate(-6040.9368711008, -4900.3614561492)" d="M 5854 5303 C 5844 5295 5808 5273 5775 5253 C 5742 5234 5714 5217 5712 5215 C 5710 5214 5732 5188 5761 5159 C 5837 5081 5878 5011 5925 4878 C 5974 4741 6005 4693 6078 4635 C 6126 4597 6325 4490 6348 4490 C 6360 4490 6370 4597 6370 4721 C 6370 4960 6261 5159 6088 5240 C 6053 5256 5991 5280 5949 5293 C 5882 5314 5871 5315 5854 5303 z" stroke-linecap="round" />
</g>
		<g transform="matrix(0.0198522202 0.0294321268 0.0294321268 -0.0198522202 88.3596114628 131.5450718527)" id="zXf1nzwanZ6md_bOvIo2i"  >
<path style="stroke: none; stroke-width: 1; stroke-dasharray: none; stroke-linecap: butt; stroke-dashoffset: 0; stroke-linejoin: miter; stroke-miterlimit: 4; fill: rgb(255,255,255); fill-rule: nonzero; opacity: 1;"  transform=" translate(-6709.7620883476, -4614.5751905631)" d="M 6410 5150 C 6538 4995 6624 4836 6667 4672 C 6688 4593 6693 4546 6697 4415 C 6700 4274 6698 4241 6677 4140 C 6663 4077 6653 4024 6654 4023 C 6655 4021 6692 4041 6735 4067 C 6843 4130 6966 4253 7010 4343 C 7068 4461 7063 4589 6997 4733 C 6934 4869 6807 5001 6654 5091 C 6580 5134 6452 5189 6387 5204 C 6360 5210 6361 5208 6410 5150 z" stroke-linecap="round" />
</g>
		<g transform="matrix(0.0198522202 0.0294321268 0.0294321268 -0.0198522202 67.8163075198 89.2935248095)" id="xdshazKvhYhaI7o95TkDo"  >
<path style="stroke: none; stroke-width: 1; stroke-dasharray: none; stroke-linecap: butt; stroke-dashoffset: 0; stroke-linejoin: miter; stroke-miterlimit: 4; fill: rgb(255,255,255); fill-rule: nonzero; opacity: 1;"  transform=" translate(-5399.5157117748, -4800.3584213764)" d="M 5495 5173 C 5411 5151 5259 5138 5171 5145 L 5087 5151 L 5119 5124 C 5192 5063 5250 4952 5280 4815 C 5306 4696 5331 4649 5404 4583 C 5456 4535 5637 4413 5644 4421 C 5646 4423 5662 4482 5679 4551 C 5736 4776 5720 4931 5625 5085 C 5563 5185 5557 5189 5495 5173 z" stroke-linecap="round" />
</g>
</g>
</g>
</svg>